<svg width="125" height="23" viewBox="0 0 125 23" fill="none" xmlns="http://www.w3.org/2000/svg">
<path d="M0 19.3865H6.21172C12.4799 19.3865 15.8963 16.0885 15.8963 9.92269C15.8963 3.64215 12.5928 0.34414 6.49407 0.34414H0V19.3865ZM2.82351 2.86783H6.49407C10.8705 2.86783 12.9317 5.04738 12.9317 9.80798V9.98005C12.9317 14.5973 10.7293 16.8628 6.29642 16.8628H2.82351V2.86783Z" fill="black"/>
<path d="M21.2176 0.34414H18.394V19.3865H21.2176V0.34414Z" fill="black"/>
<path d="M31.4598 19.702C35.6951 19.702 38.208 17.293 38.208 13.8229C38.208 10.0948 35.0457 9.1197 31.9681 8.51746C29.2857 8.00125 26.8293 7.59975 26.8293 5.56359C26.8293 3.72818 28.2693 2.52369 30.5845 2.52369C33.1539 2.52369 34.7069 3.58479 35.1022 6.36658H38.1233C37.5586 2.09352 34.8198 0 30.6128 0C26.7728 0 24.034 2.40898 24.034 5.70698C24.034 9.37781 27.3375 10.4102 30.4434 11.0411C33.1539 11.5574 35.3845 12.0736 35.3845 13.9663C35.3845 15.9738 33.9163 17.1783 31.3751 17.1783C28.4951 17.1783 27.0269 16.1172 26.4622 13.3067H23.4128C24.1469 17.4364 26.6881 19.702 31.4598 19.702Z" fill="black"/>
<path d="M53.5498 23H56.9098C55.7239 20.9638 54.3969 19.616 52.7875 18.985C56.0627 17.6085 58.0392 14.3392 58.0392 9.92269C58.0392 3.95761 54.4533 0 49.004 0C43.4417 0 39.8276 3.92893 39.8276 9.89402C39.8276 15.3142 42.7358 18.9564 47.3099 19.616C46.5757 20.2182 46.011 21.0212 45.6722 21.9389H47.564C47.7899 21.1646 48.6651 20.1608 49.964 20.1608C51.6298 20.1608 52.6181 21.1359 53.5498 23ZM48.891 17.2643C45.1075 17.2643 42.764 14.4825 42.764 10.0374V9.7793C42.764 5.27681 45.0793 2.58105 48.9757 2.58105C52.7592 2.58105 55.1027 5.33417 55.1027 9.7793V10.0374C55.1027 14.5399 52.7875 17.2643 48.891 17.2643Z" fill="black"/>
<path d="M67.923 19.7307C72.5253 19.7307 75.3206 17.1783 75.3206 11.8728V0.34414H72.5253V11.8728C72.5253 15.515 71.1418 17.1783 67.8948 17.1783C64.676 17.1783 63.1795 15.4576 63.1795 11.8441V0.34414H60.356V11.9015C60.356 17.0062 62.9536 19.7307 67.923 19.7307Z" fill="black"/>
<path d="M81.2447 0.34414H78.4212V19.3865H81.2447V0.34414Z" fill="black"/>
<path d="M94.141 8.202H87.2799V2.89651H97.5575V0.34414H84.4846V19.3865H97.981V16.8342H87.2799V10.7544H94.141V8.202Z" fill="black"/>
<path d="M113.981 0.34414H99.2139V2.89651H105.171V19.3865H107.995V2.89651H113.981V0.34414Z" fill="black"/>
<path d="M116.332 8.94763L119.466 6.76808L119.127 10.5823H121.216L120.906 6.79676L123.927 8.94763L125 7.08354L121.612 5.44888L124.915 3.81421L123.899 1.9788L120.906 4.12968L121.216 0.34414H119.127L119.466 4.12968L116.388 1.9788L115.372 3.81421L118.647 5.4202L115.287 7.08354L116.332 8.94763Z" fill="black"/>
</svg>
